<svg width="799" height="308" xmlns="http://www.w3.org/2000/svg" version="1.1" xml:space="preserve">

 <g>
  <title>Layer 1</title>
  <path stroke="null" d="m791.67866,201.71806c-24.50851,-4.2746 -94.6016,-12.49069 -99.97194,-13.15865c-8.01435,-0.99409 -28.36528,-2.58639 -37.66838,-2.57243c-25.7846,-0.3366 -19.10651,4.51702 -16.09202,6.21221c0.51297,0.19184 0.86445,0.37496 1.03227,0.54588c-0.13299,-0.06976 -0.53197,-0.26335 -1.03227,-0.54588c-4.76871,-1.78762 -23.72006,-4.46819 -44.76762,-7.03888l73.24689,-0.03662l-0.15516,-91.9257l-97.99923,0.05058c28.61227,-2.94914 62.30356,-6.92203 70.07092,-10.39089c0.38314,-0.23021 0.74412,-0.42031 1.02277,-0.55286c-0.26282,0.18312 -0.60796,0.36799 -1.02277,0.55286c-3.05248,1.83471 -7.53621,6.29941 16.11102,6.19128c9.3031,0.00349 29.64454,-1.61148 37.65255,-2.61255c5.37351,-0.67145 75.43493,-8.96253 99.93078,-13.26155c12.1086,-2.12771 -19.37566,-1.44405 -21.37687,-1.22954c-27.39634,2.94565 -90.57068,10.95072 -116.45977,12.78718c-14.51195,1.02374 -3.73011,-7.06155 2.95749,-8.06611c12.46008,-1.86959 49.07403,-8.33294 62.06924,-11.75995c16.70949,-4.4054 8.2075,-5.63494 5.24685,-5.12743c-20.2781,3.48107 -117.72003,21.58926 -157.08248,27.32884c-21.03806,3.06599 -5.75665,-2.81311 2.83399,-4.28855c28.75792,-4.93907 48.69721,-23.80068 24.36602,-20.40507c-63.17117,8.81778 -123.57168,25.14358 -147.78254,27.77705c-27.44384,2.98402 -17.54227,-3.81592 -9.79074,-6.00467c4.39507,-1.24 34.46391,-8.87359 47.03798,-13.86324c13.38469,-5.31055 9.04662,-7.93879 4.60405,-7.17665c-22.44397,3.85429 -80.63111,25.37379 -61.82542,-4.39668c2.03604,-3.2247 22.83662,-35.76642 -0.45914,-25.89176c-10.79451,4.57632 -24.70167,21.1829 -30.19234,33.17131c-5.535,-11.98144 -19.49598,-28.57407 -30.30633,-33.13818c-23.33059,-9.85024 -2.41602,22.66881 -0.37048,25.89176c18.90702,29.7478 -39.34978,8.29108 -61.81275,4.45947c-4.44573,-0.76039 -8.77747,1.87308 4.62622,7.17317c12.59307,4.97744 42.68725,12.57615 47.08548,13.81266c7.75786,2.18526 17.68476,8.973 -9.76857,6.01862c-24.22037,-2.60906 -84.67787,-18.87382 -147.8807,-27.62532c-24.34069,-3.37294 -4.3349,15.46774 24.43885,20.37716c8.59381,1.46847 23.89105,7.33362 2.84349,4.28855c-39.38145,-5.69947 -136.8867,-23.70476 -157.17431,-27.1649c-2.96382,-0.50577 -11.46264,0.73249 5.26268,5.1222c13.00788,3.41305 49.64082,9.83978 62.1104,11.69716c6.69076,0.99758 17.49794,9.06892 2.98282,8.06087c-25.46162,-1.77542 -86.98623,-9.484 -115.09502,-12.51511c-0.057,-0.00698 -37.25674,-1.42661 -22.77962,1.10048c24.50851,4.27286 94.59843,12.49069 99.97194,13.15865c8.01118,0.9906 28.36211,2.58464 37.66522,2.57243c25.78777,0.3366 19.10651,-4.51702 16.09202,-6.21395c-0.51297,-0.1901 -0.86128,-0.37496 -1.03227,-0.54588c0.13299,0.06802 0.53197,0.26335 1.03227,0.54588c6.89658,2.58639 43.4472,7.03713 73.1139,10.32462l-98.03722,0.05058l0.15832,91.9257l64.62142,-0.03488c-18.7582,2.28641 -35.13204,4.78909 -40.24906,7.0755c-0.38314,0.23196 -0.74412,0.41857 -1.02277,0.55286c0.26282,-0.18312 0.60796,-0.36624 1.02277,-0.55286c3.05248,-1.83297 7.53621,-6.29767 -16.11102,-6.18954c-9.3031,-0.00523 -29.64454,1.61148 -37.65572,2.61255c-5.37034,0.67145 -75.43176,8.96253 -99.92761,13.26155c-12.1086,2.12596 19.37566,1.44405 21.38004,1.22954c27.39634,-2.94565 90.57068,-10.95246 116.45661,-12.78718c14.51195,-1.02549 3.73011,7.05806 -2.95749,8.06436c-12.46324,1.87134 -49.07403,8.33294 -62.06924,11.75995c-16.70949,4.4054 -8.2075,5.63668 -5.24685,5.12917c20.2781,-3.48107 117.71686,-21.58926 157.08248,-27.32884c21.03806,-3.06599 5.75665,2.81485 -2.83399,4.2903c-28.75792,4.93907 -48.69721,23.79894 -24.36602,20.40332c61.88242,-8.63466 121.10183,-24.47911 146.25313,-27.59742l19.02101,-0.01046c2.42869,1.5173 -3.02398,4.51702 -7.70087,5.83899c-4.3919,1.24 -34.46391,8.87359 -47.03482,13.85975c-13.38469,5.31404 -9.04662,7.94054 -4.60405,7.18014c22.44397,-3.85603 80.63111,-25.37379 61.82542,4.39494c-2.03604,3.2247 -22.83662,35.76642 0.45914,25.89176c10.79135,-4.57457 24.70167,-21.1829 30.19234,-33.17131c5.535,11.98318 19.49598,28.57581 30.30633,33.13992c23.33059,9.85024 2.41602,-22.66881 0.37048,-25.89176c-18.90702,-29.74954 39.34978,-8.29108 61.80959,-4.45947c4.4489,0.75691 8.78063,-1.87657 -4.62305,-7.17317c-12.59307,-4.97744 -42.69041,-12.57964 -47.08548,-13.81441c-4.68005,-1.31674 -10.14538,-4.31122 -7.71987,-5.83027l19.02101,-0.00872c25.16081,3.09041 84.43405,18.87207 146.34813,27.44569c24.34069,3.37294 4.33807,-15.47123 -24.43885,-20.37891c-8.59381,-1.46498 -23.89105,-7.33013 -2.84349,-4.28506c39.38145,5.69947 136.8867,23.70476 157.17431,27.1649c2.96382,0.50402 11.46264,-0.73598 -5.26268,-5.12394c-13.00788,-3.41305 -49.64399,-9.83803 -62.1104,-11.69716c-6.69076,-0.99758 -17.49794,-9.07066 -2.98282,-8.05913c25.45846,1.77542 86.98623,9.47876 115.09502,12.51511c0.05066,0.00349 37.25041,1.41963 22.77645,-1.10397zm-237.43494,-118.59356c-4.55022,1.49114 -16.15535,6.54706 -22.45347,10.14149l-77.5723,0.03837c66.76512,-10.99432 208.43003,-45.72479 100.02577,-10.17986zm-205.00074,-5.21986c13.22636,-0.12383 40.10024,12.31629 36.24347,5.36985c-18.67903,-33.63697 -26.56356,-56.86561 -0.52247,-25.78015c17.83042,21.28754 5.34818,19.59758 21.73152,0.7447c27.71299,-31.88074 18.94185,-8.90498 0.22482,25.02673c-3.83143,6.94644 23.00444,-5.51809 36.22764,-5.40996c7.91935,0.06627 -19.306,7.02667 -20.3446,7.95798c-3.7871,3.39038 -5.06003,5.83376 -4.53439,7.51499l-44.09633,0.02267c0.52247,-1.68124 -0.75995,-4.12287 -4.55972,-7.50976c-1.04177,-0.92956 -28.28612,-7.8638 -20.36993,-7.93705zm-111.07677,5.3838c-108.52775,-35.43157 33.25432,-0.8476 100.06377,10.07871l-77.5723,0.04011c-6.31395,-3.5892 -17.93808,-8.63466 -22.49147,-10.11882zm-95.11457,19.28192l509.34329,-0.2616l0.12349,73.71985l-509.34012,0.2616l-0.12666,-73.71985zm94.72192,89.60615c3.25514,-1.06909 10.12639,-3.96068 16.08253,-6.84006l65.23571,-0.03488c-70.60605,13.14993 -180.38773,39.35736 -81.31824,6.87494zm184.63081,-2.7137c1.04177,0.92608 28.28929,7.86031 20.3731,7.93356c-13.22636,0.12557 -40.10024,-12.31455 -36.24347,-5.37159c18.67903,33.64046 26.56356,56.86735 0.52247,25.78189c-17.83359,-21.2858 -5.34818,-19.59758 -21.73152,-0.7447c-27.70982,31.88248 -18.94185,8.90498 -0.22482,-25.02498c3.83143,-6.94819 -23.00127,5.51809 -36.22447,5.40996c-7.91935,-0.06802 19.30283,-7.02841 20.34143,-7.95798c1.80489,-1.61497 3.03032,-3.01018 3.77127,-4.21356l45.63523,-0.02442c0.74412,1.20338 1.97271,2.60034 3.78077,4.21182zm50.1063,-4.23798l65.23571,-0.03488c5.96564,2.87066 12.84955,5.75702 16.10786,6.82262c99.18349,32.38127 -10.69319,6.28546 -81.34357,-6.78774z" fill-rule="evenodd" clip-rule="evenodd" fill="#FFFFFF" id="svg_13"/>
  <path id="svg_3" d="m142.09999,99.4l518,0l0,81l-518,0l0,-81z" opacity="undefined" fill="#FFFFFF"/>
  <ellipse stroke="null" ry="46" rx="20" id="svg_4" cy="139.4" cx="132.09999" fill="#FFFFFF"/>
  <ellipse stroke="null" ry="46" rx="20" id="svg_6" cy="139.4" cx="662.76668" fill="#FFFFFF"/>
 </g>
</svg>